<svg xmlns="http://www.w3.org/2000/svg" viewBox="0 0 309.73 309.17"><g data-name="Layer 2"><g data-name="Layer 1"><path d="M155.57 309.17c-14.86-.16-26.62-5.93-35.29-16.69C110.13 279.9 98 275.74 81.8 276.33c-31.75 1.16-49.6-16.86-48.43-48.73.63-15.76-4.09-26.79-15.49-37.6-24-22.87-23.83-47.8.51-70.71 11.23-10.58 15.39-21.55 14.93-36.73-1-32.15 16.12-49.74 48.21-49.09 16.52.34 28.26-4.46 39.54-16.69 20.49-22.21 46.71-22.33 67.22-.22 11.92 12.86 24.47 17.73 41.8 17 28.67-1.19 47.31 17.44 46.08 46.25-.74 17.44 4.47 29.8 17.22 41.71 22 20.57 21.74 46.67-.58 67.23-12.24 11.28-16.89 23.13-16.52 39.61.7 31.33-17.06 49.07-48.29 47.94-16.76-.61-29 4.16-39.38 16.95-8.46 10.42-20.13 15.6-33.05 15.92Zm43.7-159c-4.65.27-9.41 0-13.92 1-7.08 1.51-11.68 5.84-12.18 13.62-.48 7.6 2.78 13.8 9.91 15.21 11.31 2.24 6.07 6.77 2.47 11.27-10.18 12.73-26.66 18.12-41.79 13.41-17.33-5.4-27.13-17.12-29-35.43-1.25-12.46-7.54-19.13-16.71-18.45-9.91.73-14.86 8.47-13.81 21.57 2.74 33.91 30.17 61.8 63.15 64.21 36.58 2.68 67.4-19.71 76-55.21 5.61-23.37-.28-30.98-24.12-31.2ZM188.55 95.3c-13.75.32-26 3.48-37.32 10.14-8.62 5-11 12.41-7 20.77 4.2 8.79 12.5 10.79 20.77 6.39 15.83-8.42 30.8-8 46.61.31 8.1 4.27 16.08 2.06 20.49-7.08 4.17-8.67.7-15.16-6.67-19.83a70.4 70.4 0 0 0-36.88-10.7Zm-84-.22a20.63 20.63 0 0 0-20.33 21.07c.07 12 8.67 20.42 20.66 20.34 11.82-.09 20.58-8.91 20.53-20.67a21 21 0 0 0-20.83-20.74Z" style="fill:#f2b930"/><path d="M199.27 150.17c23.84.22 29.77 7.83 24.14 31.16-8.58 35.5-39.4 57.89-76 55.21-33-2.41-60.41-30.3-63.15-64.21-1-13.1 3.9-20.84 13.81-21.57 9.17-.68 15.46 6 16.71 18.45 1.83 18.31 11.63 30 29 35.43 15.13 4.71 31.61-.68 41.79-13.41 3.6-4.5 8.84-9-2.47-11.27-7.13-1.41-10.39-7.61-9.91-15.21.5-7.78 5.1-12.11 12.18-13.62 4.49-.96 9.25-.69 13.9-.96Z" style="fill:#262a2d"/><path d="M188.55 95.3a70.4 70.4 0 0 1 36.92 10.7c7.37 4.67 10.84 11.16 6.67 19.83-4.41 9.14-12.39 11.35-20.49 7.08-15.81-8.34-30.78-8.73-46.61-.31-8.31 4.42-16.61 2.39-20.8-6.39-4-8.36-1.63-15.72 7-20.77 11.36-6.66 23.56-9.82 37.31-10.14Z" style="fill:#26292d"/><path d="M104.58 95.08a21 21 0 0 1 20.86 20.74c0 11.76-8.71 20.58-20.53 20.67-12 .08-20.59-8.37-20.66-20.34a20.63 20.63 0 0 1 20.33-21.07Z" style="fill:#25292d"/></g></g></svg>